<mxfile host="app.diagrams.net" modified="2023-08-18T12:59:06.217Z" agent="Mozilla/5.0 (Windows NT 10.0; Win64; x64) AppleWebKit/537.36 (KHTML, like Gecko) Chrome/115.0.0.0 Safari/537.36" etag="0U3eKrWeHXpI0CeMwnWw" version="21.3.7" type="github">
  <diagram name="Pagina-1" id="qF691czIIl59hCROAZGy">
    <mxGraphModel dx="1232" dy="1100" grid="1" gridSize="10" guides="1" tooltips="1" connect="1" arrows="1" fold="1" page="1" pageScale="1" pageWidth="3300" pageHeight="4681" math="0" shadow="0">
      <root>
        <mxCell id="0" />
        <mxCell id="1" parent="0" />
        <mxCell id="IKSh-9KGsnWVwlufOS3P-1" value="Dungeon" style="rounded=1;whiteSpace=wrap;html=1;" parent="1" vertex="1">
          <mxGeometry x="270" y="120" width="176" height="50" as="geometry" />
        </mxCell>
        <mxCell id="Ywt_jK21pkEm6FV4mjwP-1" value="Dungeon Instance" style="rounded=1;whiteSpace=wrap;html=1;" parent="1" vertex="1">
          <mxGeometry x="270" y="280" width="176" height="50" as="geometry" />
        </mxCell>
        <mxCell id="Ywt_jK21pkEm6FV4mjwP-2" value="Dungeon Data" style="rounded=1;whiteSpace=wrap;html=1;" parent="1" vertex="1">
          <mxGeometry x="270" y="440" width="176" height="50" as="geometry" />
        </mxCell>
        <mxCell id="Ywt_jK21pkEm6FV4mjwP-5" style="edgeStyle=orthogonalEdgeStyle;rounded=0;orthogonalLoop=1;jettySize=auto;html=1;entryX=0.5;entryY=0;entryDx=0;entryDy=0;" parent="1" source="Ywt_jK21pkEm6FV4mjwP-3" target="Ywt_jK21pkEm6FV4mjwP-4" edge="1">
          <mxGeometry relative="1" as="geometry" />
        </mxCell>
        <mxCell id="Ywt_jK21pkEm6FV4mjwP-3" value="Player Load Dungeon" style="rounded=1;whiteSpace=wrap;html=1;" parent="1" vertex="1">
          <mxGeometry x="720" y="120" width="200" height="40" as="geometry" />
        </mxCell>
        <mxCell id="Ywt_jK21pkEm6FV4mjwP-7" style="edgeStyle=orthogonalEdgeStyle;rounded=0;orthogonalLoop=1;jettySize=auto;html=1;entryX=0.5;entryY=0;entryDx=0;entryDy=0;" parent="1" source="Ywt_jK21pkEm6FV4mjwP-4" target="Ywt_jK21pkEm6FV4mjwP-6" edge="1">
          <mxGeometry relative="1" as="geometry" />
        </mxCell>
        <mxCell id="Ywt_jK21pkEm6FV4mjwP-4" value="GetOrCreateDungeonInstance" style="rounded=1;whiteSpace=wrap;html=1;" parent="1" vertex="1">
          <mxGeometry x="720" y="200" width="200" height="40" as="geometry" />
        </mxCell>
        <mxCell id="Ywt_jK21pkEm6FV4mjwP-9" style="edgeStyle=orthogonalEdgeStyle;rounded=0;orthogonalLoop=1;jettySize=auto;html=1;entryX=0.5;entryY=0;entryDx=0;entryDy=0;" parent="1" source="Ywt_jK21pkEm6FV4mjwP-6" target="Ywt_jK21pkEm6FV4mjwP-8" edge="1">
          <mxGeometry relative="1" as="geometry" />
        </mxCell>
        <mxCell id="Ywt_jK21pkEm6FV4mjwP-6" value="Load Dungeon" style="rounded=1;whiteSpace=wrap;html=1;" parent="1" vertex="1">
          <mxGeometry x="720" y="280" width="200" height="40" as="geometry" />
        </mxCell>
        <mxCell id="Ywt_jK21pkEm6FV4mjwP-8" value="Setup Dungeon" style="rounded=1;whiteSpace=wrap;html=1;" parent="1" vertex="1">
          <mxGeometry x="720" y="360" width="200" height="40" as="geometry" />
        </mxCell>
      </root>
    </mxGraphModel>
  </diagram>
</mxfile>
